<svg width="160" height="55" viewBox="0 0 160 55" fill="none" xmlns="http://www.w3.org/2000/svg">
<path fill-rule="evenodd" clip-rule="evenodd" d="M11.2191 13.1173L0 19.6454V7.62137L11.2191 1.09375V13.1173ZM11.2191 47.6626L0 54.1902V23.3729L11.2191 16.8453V47.6626Z" fill="#ED3237"/>
<path fill-rule="evenodd" clip-rule="evenodd" d="M26.4369 12.2716L15.2178 18.9336V6.66201L26.4369 0V12.2716ZM26.4369 47.5284L15.2178 54.1904V22.7382L26.4369 16.0757V47.5284Z" fill="#F58634"/>
<path d="M50.7549 29.4937H43.875V6.66211H50.7549V29.4937ZM83.0634 29.4937H76.1835V16.2739L69.9726 23.9291H69.4271L63.1994 16.2739V29.4937H56.5221V6.66211H62.7552L69.776 15.2284L76.8239 6.66211H83.0634V29.4937ZM108.593 13.8459C108.593 14.6888 108.447 15.515 108.155 16.3243C107.867 17.1277 107.396 17.8813 106.749 18.5784C106.097 19.2751 105.226 19.8428 104.119 20.2757C103.017 20.7085 101.719 20.9279 100.223 20.9279H95.71V29.4937H88.8301V6.66211H100.229C101.719 6.66211 103.017 6.88149 104.124 7.31976C105.226 7.75853 106.103 8.33169 106.749 9.03431C107.396 9.73692 107.867 10.5013 108.155 11.322C108.447 12.1482 108.593 12.9857 108.593 13.8459ZM101.578 13.8795C101.578 12.789 101.257 12.0469 100.612 11.6481C99.9707 11.2489 98.818 11.0463 97.1597 11.0463H95.71V16.5437H97.1938C98.3352 16.5437 99.2172 16.4706 99.8299 16.3303C100.448 16.1894 100.892 15.9256 101.168 15.5377C101.443 15.1553 101.578 14.5984 101.578 13.8795ZM129.615 29.4937H112.409V6.66211H129.333V11.2489H119.289V15.4305H128.872V20.0173H119.289V24.9074H129.615V29.4937ZM160 29.4937H151.159L148.736 26.6328C148.658 26.5202 148.18 25.9361 147.303 24.8793C146.426 23.8224 145.841 23.097 145.555 22.7151C144.24 24.4914 143.166 25.8966 142.329 26.9248L140.238 29.4937H131.525L141.21 17.6169L131.969 6.66211H140.766L142.329 8.57331C143.228 9.68603 144.307 11.0745 145.555 12.7327C146.752 10.9737 147.708 9.66923 148.422 8.82085L150.215 6.66211H158.848L149.973 17.6169L160 29.4937Z" fill="#373435"/>
<path d="M47.5215 47.3662H43.875V35.2641H47.5215V47.3662ZM63.7178 47.3662H60.4641L54.1894 40.6271V47.3662H50.5785V35.2641H53.8144L60.0708 41.9681V35.2641H63.7178V47.3662ZM75.2091 43.8506C75.2091 44.6076 75.0159 45.2628 74.6286 45.8172C74.2412 46.3686 73.7016 46.7916 73.0109 47.0865C72.3162 47.3815 71.5241 47.5273 70.6268 47.5273C70.3768 47.5273 70.07 47.5125 69.7063 47.4794C69.3431 47.4467 68.8604 47.3578 68.2586 47.2115C67.6538 47.0688 67.0278 46.8509 66.3755 46.5677V43.6001C66.9863 43.9791 67.5881 44.2919 68.178 44.5419C68.771 44.7924 69.4024 44.9174 70.0789 44.9174C70.7014 44.9174 71.1041 44.8132 71.2884 44.6076C71.4703 44.3991 71.5626 44.2054 71.5626 44.0265C71.5626 43.699 71.4045 43.4247 71.0918 43.2014C70.779 42.9776 70.3234 42.7453 69.7246 42.5072C69.06 42.227 68.476 41.9231 67.9755 41.5951C67.4749 41.265 67.0638 40.8534 66.7481 40.3588C66.4289 39.8642 66.2713 39.2802 66.2713 38.6038C66.2713 37.9515 66.4319 37.3616 66.7506 36.8373C67.0727 36.3096 67.5614 35.8896 68.2171 35.5739C68.8752 35.2611 69.6796 35.1035 70.6268 35.1035C71.3032 35.1035 71.9258 35.1687 72.498 35.2997C73.0731 35.4306 73.547 35.5769 73.9195 35.7409C74.2916 35.9015 74.5451 36.0295 74.6849 36.1224V38.9585C74.1903 38.6038 73.6423 38.2851 73.0346 38.0079C72.4263 37.7282 71.7771 37.5879 71.0829 37.5879C70.6298 37.5879 70.3022 37.6743 70.0966 37.8502C69.8941 38.0261 69.7928 38.2406 69.7928 38.4965C69.7928 38.7352 69.8941 38.9407 70.0966 39.1166C70.3022 39.2925 70.6658 39.504 71.1871 39.754C72.12 40.1918 72.8617 40.5851 73.422 40.934C73.9788 41.2823 74.4171 41.688 74.7328 42.1435C75.0515 42.5996 75.2091 43.1713 75.2091 43.8506ZM90.2942 41.9469C90.2942 42.984 90.1005 43.8655 89.7131 44.5958C89.3257 45.3285 88.8133 45.9066 88.1754 46.3296C87.541 46.756 86.8527 47.0623 86.117 47.2471C85.3808 47.4349 84.6451 47.5273 83.9118 47.5273C82.887 47.5273 81.8919 47.3514 80.921 47.003C79.9525 46.6547 79.1422 46.0613 78.4895 45.2213C77.8373 44.3838 77.5127 43.2903 77.5127 41.9469V35.2641H81.1592V41.0021C81.1592 41.8011 81.2753 42.4593 81.505 42.9805C81.7343 43.5018 82.053 43.8833 82.4641 44.1249C82.8727 44.3665 83.3579 44.488 83.9153 44.488C84.4514 44.488 84.9252 44.369 85.3393 44.1308C85.7504 43.8922 86.072 43.5142 86.3013 42.9958C86.5311 42.477 86.6472 41.8189 86.6472 41.0204V35.2641H90.2942V41.9469ZM104.872 47.3662H100.954L100.001 45.2213C99.652 44.4347 99.3363 43.8595 99.0561 43.4959C98.7789 43.1327 98.5052 42.9 98.2399 42.7987C97.975 42.6979 97.6351 42.647 97.2151 42.647H96.804V47.3662H93.157V35.2641H99.3635C100.364 35.2641 101.187 35.4667 101.824 35.8748C102.465 36.2829 102.926 36.7775 103.21 37.3616C103.493 37.9426 103.633 38.4965 103.633 39.0213C103.633 39.632 103.513 40.1473 103.278 40.5703C103.043 40.9932 102.796 41.3006 102.533 41.4938C102.271 41.685 101.976 41.8693 101.652 42.0422C102.042 42.2685 102.363 42.5398 102.617 42.8496C102.87 43.1624 103.213 43.7914 103.651 44.7386L104.872 47.3662ZM99.9144 39.0895C99.9144 38.5296 99.7296 38.1393 99.3635 37.9189C98.9968 37.6981 98.4009 37.5879 97.5723 37.5879H96.804V40.5016H97.5906C98.4815 40.5016 99.0917 40.4033 99.4198 40.2101C99.7508 40.0129 99.9144 39.6409 99.9144 39.0895ZM119.814 47.3662H116.078L115.091 44.9174H109.836L108.832 47.3662H105.096L110.447 35.2641H114.481L119.814 47.3662ZM114.254 42.8081L112.481 38.3923L110.691 42.8081H114.254ZM134.559 47.3662H131.305L125.031 40.6271V47.3662H121.42V35.2641H124.655L130.912 41.9681V35.2641H134.559V47.3662ZM148.425 46.4605C147.925 46.7229 147.412 46.9314 146.891 47.089C146.366 47.2471 145.839 47.3608 145.306 47.426C144.772 47.4947 144.221 47.5273 143.652 47.5273C142.598 47.5273 141.653 47.3815 140.818 47.089C139.984 46.8005 139.26 46.3716 138.647 45.8024C138.033 45.2361 137.571 44.572 137.267 43.8121C136.96 43.0522 136.808 42.2181 136.808 41.3095C136.808 40.2694 136.99 39.3578 137.351 38.5741C137.711 37.7905 138.214 37.1412 138.864 36.6229C139.513 36.1041 140.253 35.7231 141.081 35.4756C141.909 35.2285 142.785 35.1035 143.703 35.1035C145.076 35.1035 146.634 35.4069 148.375 36.0181V39.2268C147.776 38.8543 147.183 38.5445 146.598 38.2969C146.012 38.0499 145.324 37.9278 144.534 37.9278C143.828 37.9278 143.172 38.0676 142.562 38.3478C141.951 38.625 141.459 39.0237 141.087 39.5426C140.714 40.0609 140.527 40.6657 140.527 41.3599C140.527 41.9711 140.69 42.5309 141.015 43.0403C141.34 43.5497 141.793 43.9519 142.374 44.2529C142.952 44.5538 143.604 44.703 144.331 44.703C144.921 44.703 145.475 44.6313 146 44.488C146.524 44.3452 146.965 44.1876 147.323 44.0147C147.68 43.8388 148.047 43.6332 148.425 43.3916V46.4605ZM160 47.3662H150.88V35.2641H159.851V37.6951H154.527V39.9121H159.607V42.3431H154.527V44.9352H160V47.3662Z" fill="#373435"/>
</svg>
